<?xml version="1.0" encoding="utf-8"?>
<!-- Generator: Adobe Illustrator 22.0.0, SVG Export Plug-In . SVG Version: 6.00 Build 0)  -->
<svg version="1.1" id="Capa_1" xmlns="http://www.w3.org/2000/svg" xmlns:xlink="http://www.w3.org/1999/xlink" x="0px" y="0px"
	 viewBox="0 0 193.5 189.6" style="enable-background:new 0 0 193.5 189.6;" xml:space="preserve">
<style type="text/css">
	.st0{fill:#49EACB;}
	.st1{fill:#FFFFFF;}
	.st2{opacity:0.64;fill:#49EACB;}
</style>
<g>
	<g>
		<g>
			<path class="st0" d="M65.9,184.6v-22.4H47.7c-4.2,9.8-7.8,19.5-10.4,27.4L65.9,184.6z"/>
			<path class="st1" d="M193.5,189.5c0,0-33.2-53-79.6-89.8L84.7,135c31.2,33,49,54.5,49,54.5H193.5z"/>
		</g>
		<path class="st0" d="M15.4,151.2c-0.7,3.1-1.3,5.9-1.9,8.9c-3.7-0.1-7.2-0.1-11.1-0.2C5.1,154.8,8.9,151.7,15.4,151.2z"/>
		<path class="st0" d="M57.4,148.7c2.9,1.1,5.5,2,8.3,3c-0.9,2.2-1.8,4.3-2.8,6.6c-1.9-0.6-3.7-1.1-5.5-1.6
			c-1.8-0.6-3.6-1.1-5.8-1.8C53.7,152.7,55.5,150.8,57.4,148.7z"/>
		<path class="st0" d="M10.2,174.2c-2.3,2-4.4,3.8-6.5,5.7c-5.1-5-5.1-6.6,0.3-11.8c1.4,1.4,2.7,2.8,4.1,4.2
			C8.8,172.8,9.4,173.4,10.2,174.2z"/>
	</g>
	<g>
		<path class="st0" d="M31,55.7l12,6.7l9-13.6l11.3,6.4c1.3-1.5,2.7-3,4.1-4.6l0-50.7C51.8,2.9,37.2,8.6,24.2,16.6l0,49.3L31,55.7z"
			/>
		<path class="st2" d="M31,55.7l12,6.7l9-13.6l11.3,6.4c1.3-1.5,2.7-3,4.1-4.6l0-50.7C51.8,2.9,37.2,8.6,24.2,16.6l0,49.3L31,55.7z"
			/>
	</g>
	<g>
		<path class="st1" d="M67.4,61.2c-0.1,0.1-0.2,0.3-0.4,0.4L65,64l-10.7-6.1l-9,13.6l-12-6.7l-9.2,13.8l-3.3,5l12,6.7l-9,13.6
			l10.7,6.1l-1.4,2.7c-12.4,23.8-17.9,51.1-21.8,76.8h20c2.5-7.7,6-17.3,10.2-27.2c5.9-14.1,13.2-28.6,21.3-38.7l2.2-2.7l13,9.3
			L108,93.6L92.5,78.5l1.9-2.2c0.9-1.1,23.2-26.9,68.3-56c-9.8-6.8-20.7-12.2-32.2-16C122.6,10.3,85.9,39,67.4,61.2z"/>
	</g>
</g>
</svg>
